<?xml version="1.0" encoding="UTF-8" standalone="no"?>
<!-- Created with Inkscape (http://www.inkscape.org/) -->

<svg
   width="23.616562mm"
   height="8.5861168mm"
   viewBox="0 0 23.616562 8.586117"
   version="1.1"
   id="svg5"
   xml:space="preserve"
   xmlns="http://www.w3.org/2000/svg"
   xmlns:svg="http://www.w3.org/2000/svg"><defs
     id="defs2" /><g
     id="layer1"
     transform="translate(787.03329,-89.977075)"><g
       id="g60516"
       transform="translate(75.743953,36.201652)"><g
         id="g60508"
         transform="matrix(0.4421166,0,0,0.4421166,-863.47454,335.77313)"
         style="fill:#cccccc"><g
           id="g60492"
           style="fill:#cccccc;fill-opacity:1;stroke-width:3.55292"
           transform="matrix(0.21926011,0,0,0.21926011,2.8621419,-641.44074)"><g
             id="g60490"
             style="fill:#cccccc;fill-opacity:1;stroke-width:3.55292"><path
               id="path60470"
               style="fill:#cccccc;fill-opacity:1;stroke:none;stroke-width:40.68;stroke-linecap:round;stroke-linejoin:round;stroke-miterlimit:4;stroke-dasharray:none;stroke-dashoffset:0;stroke-opacity:1;paint-order:normal"
               d="m 120.31546,27.374816 v 7.63984 h 7.64039 v 16.43666 c -2.57683,-1.61365 -5.555,-2.47131 -8.59537,-2.47528 -8.96638,-6e-5 -16.23514,7.26867 -16.23521,16.2352 7e-5,8.96651 7.26881,16.23526 16.23521,16.2352 3.04037,-0.004 6.01854,-0.86164 8.59537,-2.4753 v 2.47415 5.7e-4 h 7.63982 v -5.7e-4 h 7.63984 v -7.63982 h -7.63984 v -8.59423 -37.83642 z m -0.95498,29.23992 c 4.73886,5.5e-4 8.58347,3.83618 8.59537,8.5751 v 0.0429 c -0.0116,4.73892 -3.85651,8.57446 -8.59537,8.5751 -4.74765,-4e-5 -8.5964,-3.84878 -8.59651,-8.5965 1.1e-4,-4.74772 3.84886,-8.59645 8.59651,-8.59648 z" /><g
               id="g60478"
               transform="matrix(0.95943253,0,0,0.95943253,-377.34797,-477.32148)"
               style="fill:#cccccc;fill-opacity:1;stroke-width:3.70314"><path
                 id="path60472"
                 style="fill:#cccccc;fill-opacity:1;stroke:none;stroke-width:42.4;stroke-linecap:round;stroke-linejoin:round;stroke-miterlimit:4;stroke-dasharray:none;stroke-dashoffset:0;stroke-opacity:1;paint-order:normal"
                 d="m 567.28346,552.39905 c -2.57683,-1.61365 -5.555,-2.47131 -8.59537,-2.47528 -8.96638,-6e-5 -16.23514,7.26867 -16.23521,16.2352 7e-5,8.96651 7.26881,16.23526 16.23521,16.2352 3.04037,-0.004 6.01854,-0.86164 8.59537,-2.4753 v 2.47415 5.7e-4 h 7.63982 v -5.7e-4 -7.63982 -8.59423 c 0,-8.16829 -6.051,-12.60965 -7.63982,-13.75992 z m -8.59537,5.16342 c 4.73886,5.5e-4 8.58347,3.83618 8.59537,8.5751 v 0.0429 c -0.0116,4.73892 -3.85651,8.57446 -8.59537,8.5751 -4.74765,-4e-5 -8.5964,-3.84878 -8.59651,-8.5965 1.1e-4,-4.74772 3.84886,-8.59645 8.59651,-8.59648 z" /><g
                 id="g60476"
                 transform="matrix(-1.4437906,0,0,-0.72189932,1484.0901,992.25998)"
                 style="fill:#cccccc;fill-opacity:1;stroke-width:4.80628"><path
                   style="opacity:1;fill:#cccccc;fill-opacity:1;stroke:none;stroke-width:156.968;stroke-linecap:round;stroke-linejoin:round;stroke-miterlimit:4;stroke-dasharray:none;stroke-dashoffset:0;stroke-opacity:1;paint-order:normal"
                   d="m 2415,2277.5195 h -27.0402 -37.471 v 20 h 37.471 27.0402 20 v -20 c 0,0 -20.0025,-6e-4 -20,0 z"
                   transform="matrix(0,-0.26458333,0.26458333,0,27.11462,1234.9479)"
                   id="path60474" /></g></g><g
               id="g60488"
               transform="translate(-667.16273,-500.94773)"
               style="fill:#cccccc;fill-opacity:1;stroke-width:3.55292"><g
                 id="g60486"
                 transform="matrix(0.95943253,0,0,0.95943253,279.7213,-152.11167)"
                 style="fill:#cccccc;fill-opacity:1;stroke-width:3.70314"><g
                   id="g60482"
                   transform="matrix(1.4437906,0,0,1.4437906,-319.36358,-117.89078)"
                   style="fill:#cccccc;fill-opacity:1;stroke-width:3.39856"><path
                     style="opacity:1;fill:#cccccc;fill-opacity:1;stroke:none;stroke-width:110.994;stroke-linecap:round;stroke-linejoin:round;stroke-miterlimit:4;stroke-dasharray:none;stroke-dashoffset:0;stroke-opacity:1;paint-order:normal"
                     d="m 2415,2277.5195 h -20 -40 v 20 h 40 20 25.4147 v -20 z"
                     transform="matrix(0,-0.26458333,0.26458333,0,27.11462,1234.9479)"
                     id="path60480" /></g><path
                   id="path60484"
                   style="color:#000000;fill:#cccccc;fill-opacity:1;stroke-width:3.70314;stroke-linecap:round;-inkscape-stroke:none;paint-order:stroke fill markers"
                   d="m 606.52789,733.4827 c -0.55568,0 -1.68723,-0.0156 -2.61249,0.0288 -7.19189,0.34481 -14.11065,6.71504 -14.11065,13.69804 v 16.81654 h 7.64862 v -16.81654 c 0,-2.79307 3.28426,-6.03671 6.61048,-6.08285 1.30984,-0.0182 1.82419,0.007 2.46404,0.007 3.43292,0 6.07818,2.6432 6.07818,6.07612 v 18.35297 h 7.64863 v -18.35297 c 0,-7.53868 -6.18813,-13.72681 -13.72681,-13.72681 z" /></g></g></g></g><g
           id="g60506"
           transform="matrix(0.19475346,0,0,0.19475346,-62.016188,-605.77422)"
           style="fill:#cccccc;fill-opacity:1;stroke-width:4"><path
             id="path60494"
             style="fill:#cccccc;fill-opacity:1;stroke:none;stroke-width:45.7988;stroke-linecap:round;stroke-linejoin:round;stroke-miterlimit:4;stroke-dasharray:none;stroke-dashoffset:0;stroke-opacity:1;paint-order:normal"
             d="m 345.88602,-152.31726 v 8.60119 h 8.60182 v 18.50495 c -2.90108,-1.8167 -6.25401,-2.78228 -9.67696,-2.78675 -10.09466,-7e-5 -18.27807,8.18332 -18.27816,18.27814 9e-5,10.094805 8.18348,18.278209 18.27816,18.278142 3.42295,-0.0045 6.77588,-0.970064 9.67696,-2.786778 v 2.785483 6.42e-4 h 8.60117 v -6.42e-4 h 8.60119 v -8.601167 h -8.60119 v -9.67568 -42.59753 z m -1.07514,32.9193 c 5.33517,6.2e-4 9.66356,4.3189 9.67696,9.65414 v 0.0483 c -0.013,5.33524 -4.34179,9.65342 -9.67696,9.65414 -5.34507,-4e-5 -9.67812,-4.33309 -9.67823,-9.67823 1.1e-4,-5.34515 4.33316,-9.67818 9.67823,-9.67821 z" /><g
             id="g60498"
             transform="matrix(1.6254688,0,0,1.6254688,-648.59911,-1085.9915)"
             style="fill:#cccccc;fill-opacity:1;stroke-width:3.2607"><path
               style="opacity:1;fill:#cccccc;fill-opacity:1;stroke:none;stroke-width:106.49;stroke-linecap:round;stroke-linejoin:round;stroke-miterlimit:4;stroke-dasharray:none;stroke-dashoffset:0;stroke-opacity:1;paint-order:normal"
               d="m 2415,2257.5195 v 20 h -20 -40 v 20 h 40 20 20 v -20 -20 z"
               transform="matrix(0,-0.26458333,0.26458333,0,27.11462,1234.9479)"
               id="path60496" /></g><path
             id="path60500"
             style="fill:#cccccc;fill-opacity:1;stroke:none;stroke-width:45.7988;stroke-linecap:round;stroke-linejoin:round;stroke-miterlimit:4;stroke-dasharray:none;stroke-dashoffset:0;stroke-opacity:1;paint-order:normal"
             d="m 404.78757,-64.907193 v -8.601197 h 9.66459 v -18.504954 c -2.90108,1.816703 -6.25401,2.782285 -9.67697,2.786755 -10.09466,6.8e-5 -18.27806,-8.183317 -18.27815,-18.278141 9e-5,-10.0948 8.18349,-18.27821 18.27815,-18.27814 3.42296,0.004 6.77589,0.97006 9.67697,2.78679 v -2.7855 -6.4e-4 h 8.60117 v 6.4e-4 h 8.60119 v 8.60117 h -8.60119 v 9.67568 42.597537 z m -0.013,-32.919305 c 5.33517,-6.19e-4 9.66357,-4.318902 9.67697,-9.654142 v -0.0483 c -0.0131,-5.33524 -4.3418,-9.65341 -9.67697,-9.65414 -5.34506,5e-5 -9.67813,4.33309 -9.67824,9.67824 1.1e-4,5.34514 4.33318,9.67817 9.67824,9.678203 z" /><g
             id="g60504"
             transform="matrix(1.6254688,0,0,-1.6254688,-586.81681,868.70245)"
             style="fill:#cccccc;fill-opacity:1;stroke-width:3.2607"><path
               style="opacity:1;fill:#cccccc;fill-opacity:1;stroke:none;stroke-width:106.49;stroke-linecap:round;stroke-linejoin:round;stroke-miterlimit:4;stroke-dasharray:none;stroke-dashoffset:0;stroke-opacity:1;paint-order:normal"
               d="m 2415,2257.5195 v 20 h -20 -40 v 20 h 40 20 20 v -20 -20 z"
               transform="matrix(0,-0.26458333,0.26458333,0,27.11462,1234.9479)"
               id="path60502" /></g></g></g><circle
         style="fill:none;fill-opacity:1;stroke:#cccccc;stroke-width:0.230767;stroke-linecap:round;stroke-linejoin:round;stroke-dasharray:none;stroke-opacity:1"
         id="circle60510"
         cx="-840.70715"
         cy="55.321899"
         r="1.4310929" /><text
         xml:space="preserve"
         style="font-weight:bold;font-size:2.30611px;font-family:'Montserrat Alternates';-inkscape-font-specification:'Montserrat Alternates Bold';text-align:center;letter-spacing:-0.115305px;text-anchor:middle;fill:#cccccc;fill-opacity:1;stroke-width:1.0895;stroke-linecap:round;stroke-linejoin:round;paint-order:stroke fill markers"
         x="-840.76868"
         y="56.08181"
         id="text60514"><tspan
           id="tspan60512"
           style="font-style:normal;font-variant:normal;font-weight:bold;font-stretch:normal;font-family:'DM Sans';-inkscape-font-specification:'DM Sans Bold';fill:#cccccc;fill-opacity:1;stroke-width:1.0895"
           x="-840.82635"
           y="56.08181">C</tspan></text></g></g></svg>
