<?xml version="1.0" encoding="UTF-8" standalone="no"?>
<!-- Created with Inkscape (http://www.inkscape.org/) -->

<svg
   width="81.160896mm"
   height="77.936897mm"
   viewBox="0 0 81.160897 77.936899"
   version="1.1"
   id="svg5"
   xml:space="preserve"
   xmlns="http://www.w3.org/2000/svg"
   xmlns:svg="http://www.w3.org/2000/svg"><defs
     id="defs2" /><g
     id="layer1"
     transform="translate(1111.2799,1111.3765)"><path
       id="path1529"
       style="fill:#00aad4;fill-opacity:1;stroke:none;stroke-width:9.09341;stroke-linecap:round;stroke-linejoin:round;stroke-miterlimit:4;stroke-dasharray:none;stroke-dashoffset:0;stroke-opacity:1;paint-order:normal"
       d="m -1053.3695,-1111.3765 v 7.7495 h 7.751 v 16.4965 c -2.6143,-1.637 -5.6353,-2.5074 -8.7191,-2.5114 -9.0956,0 -16.47,7.3738 -16.47,16.4695 0,9.0958 7.3744,16.4689 16.47,16.4689 3.0838,0 6.1048,-0.874 8.7191,-2.5107 v 2.5101 h 7.7497 7.7498 v -7.7503 h -7.7498 v -8.718 -38.2041 z m -40.4734,7.7602 v 7.7495 h 7.7509 v 16.6742 c -2.6131,-1.6369 -5.6353,-2.5074 -8.719,-2.5113 -9.0957,-10e-5 -16.4689,7.3737 -16.4689,16.4695 0,9.0957 7.3732,16.469 16.4689,16.4689 3.0837,-10e-4 6.1059,-0.8741 8.719,-2.5108 v 2.5095 6e-4 h 7.7509 v -6e-4 h 7.7487 v -7.7495 h -7.7487 v -8.7181 -38.3819 z m 39.5053,21.7233 c 4.8072,3e-4 8.7067,3.8913 8.7191,8.6985 v 0.045 c -0.01,4.8073 -3.9119,8.6979 -8.7191,8.6987 -4.8162,-2e-4 -8.7213,-3.904 -8.7213,-8.7202 0,-4.8162 3.9051,-8.7207 8.7213,-8.7208 z m -40.4734,7.9379 c 4.8071,5e-4 8.7078,3.8912 8.719,8.6985 v 0.045 c -0.01,4.8073 -3.9119,8.698 -8.719,8.6987 -4.8162,-10e-5 -8.7202,-3.904 -8.7202,-8.7201 0,-4.8161 3.904,-8.7207 8.7202,-8.7207 z m 32.5623,25.0152 v 7.7502 h -7.7498 -15.5007 v 7.7501 h 15.5007 7.7498 7.7497 v -7.7501 -7.7502 z" /></g></svg>
