<?xml version="1.0" encoding="UTF-8" standalone="no"?>
<!-- Created with Inkscape (http://www.inkscape.org/) -->

<svg
   width="75.279343mm"
   height="37.889095mm"
   viewBox="0 0 75.279343 37.889096"
   version="1.1"
   id="svg5"
   xml:space="preserve"
   xmlns="http://www.w3.org/2000/svg"
   xmlns:svg="http://www.w3.org/2000/svg"><defs
     id="defs2" /><g
     id="layer1"
     transform="translate(1358.9521,889.11266)"><g
       id="g58253"
       transform="matrix(0.93061821,0,0,0.93061821,-1350.0661,-133.7161)"><g
         id="g58213"
         transform="matrix(0.2588448,0,0,0.2588448,-77.82434,-774.20586)"
         style="stroke-width:4"><g
           id="g58211"
           transform="translate(-0.23691077,7.4083331)"
           style="stroke-width:4"><g
             id="g58195"
             style="fill:#892ca0;fill-opacity:1;stroke-width:3.55292"
             transform="matrix(1.1258342,0,0,1.1258342,306.67223,-183.13678)"><g
               id="g58193"
               style="fill:#892ca0;fill-opacity:1;stroke-width:3.55292"><path
                 id="path58173"
                 style="fill:#892ca0;fill-opacity:1;stroke:none;stroke-width:40.68;stroke-linecap:round;stroke-linejoin:round;stroke-miterlimit:4;stroke-dasharray:none;stroke-dashoffset:0;stroke-opacity:1;paint-order:normal"
                 d="m 120.31546,27.374816 v 7.63984 h 7.64039 v 16.43666 c -2.57683,-1.61365 -5.555,-2.47131 -8.59537,-2.47528 -8.96638,-6e-5 -16.23514,7.26867 -16.23521,16.2352 7e-5,8.96651 7.26881,16.23526 16.23521,16.2352 3.04037,-0.004 6.01854,-0.86164 8.59537,-2.4753 v 2.47415 5.7e-4 h 7.63982 v -5.7e-4 h 7.63984 v -7.63982 h -7.63984 v -8.59423 -37.83642 z m -0.95498,29.23992 c 4.73886,5.5e-4 8.58347,3.83618 8.59537,8.5751 v 0.0429 c -0.0116,4.73892 -3.85651,8.57446 -8.59537,8.5751 -4.74765,-4e-5 -8.5964,-3.84878 -8.59651,-8.5965 1.1e-4,-4.74772 3.84886,-8.59645 8.59651,-8.59648 z" /><g
                 id="g58181"
                 transform="matrix(0.95943253,0,0,0.95943253,-377.34797,-477.32148)"
                 style="fill:#892ca0;fill-opacity:1;stroke-width:3.70314"><path
                   id="path58175"
                   style="fill:#892ca0;fill-opacity:1;stroke:none;stroke-width:42.4;stroke-linecap:round;stroke-linejoin:round;stroke-miterlimit:4;stroke-dasharray:none;stroke-dashoffset:0;stroke-opacity:1;paint-order:normal"
                   d="m 567.28346,552.39905 c -2.57683,-1.61365 -5.555,-2.47131 -8.59537,-2.47528 -8.96638,-6e-5 -16.23514,7.26867 -16.23521,16.2352 7e-5,8.96651 7.26881,16.23526 16.23521,16.2352 3.04037,-0.004 6.01854,-0.86164 8.59537,-2.4753 v 2.47415 5.7e-4 h 7.63982 v -5.7e-4 -7.63982 -8.59423 c 0,-8.16829 -6.051,-12.60965 -7.63982,-13.75992 z m -8.59537,5.16342 c 4.73886,5.5e-4 8.58347,3.83618 8.59537,8.5751 v 0.0429 c -0.0116,4.73892 -3.85651,8.57446 -8.59537,8.5751 -4.74765,-4e-5 -8.5964,-3.84878 -8.59651,-8.5965 1.1e-4,-4.74772 3.84886,-8.59645 8.59651,-8.59648 z" /><g
                   id="g58179"
                   transform="matrix(-1.4437906,0,0,-0.72189932,1484.0901,992.25998)"
                   style="fill:#892ca0;fill-opacity:1;stroke-width:4.80628"><path
                     style="opacity:1;fill:#892ca0;fill-opacity:1;stroke:none;stroke-width:156.968;stroke-linecap:round;stroke-linejoin:round;stroke-miterlimit:4;stroke-dasharray:none;stroke-dashoffset:0;stroke-opacity:1;paint-order:normal"
                     d="m 2415,2277.5195 h -27.0402 -37.471 v 20 h 37.471 27.0402 20 v -20 c 0,0 -20.0025,-6e-4 -20,0 z"
                     transform="matrix(0,-0.26458333,0.26458333,0,27.11462,1234.9479)"
                     id="path58177" /></g></g><g
                 id="g58191"
                 transform="translate(-667.16273,-500.94773)"
                 style="fill:#892ca0;fill-opacity:1;stroke-width:3.55292"><g
                   id="g58189"
                   transform="matrix(0.95943253,0,0,0.95943253,279.7213,-152.11167)"
                   style="fill:#892ca0;fill-opacity:1;stroke-width:3.70314"><g
                     id="g58185"
                     transform="matrix(1.4437906,0,0,1.4437906,-319.36358,-117.89078)"
                     style="fill:#892ca0;fill-opacity:1;stroke-width:3.39856"><path
                       style="opacity:1;fill:#892ca0;fill-opacity:1;stroke:none;stroke-width:110.994;stroke-linecap:round;stroke-linejoin:round;stroke-miterlimit:4;stroke-dasharray:none;stroke-dashoffset:0;stroke-opacity:1;paint-order:normal"
                       d="m 2415,2277.5195 h -20 -40 v 20 h 40 20 25.4147 v -20 z"
                       transform="matrix(0,-0.26458333,0.26458333,0,27.11462,1234.9479)"
                       id="path58183" /></g><path
                     id="path58187"
                     style="color:#000000;fill:#892ca0;fill-opacity:1;stroke-width:3.70314;stroke-linecap:round;-inkscape-stroke:none;paint-order:stroke fill markers"
                     d="m 606.52789,733.4827 c -0.55568,0 -1.68723,-0.0156 -2.61249,0.0288 -7.19189,0.34481 -14.11065,6.71504 -14.11065,13.69804 v 16.81654 h 7.64862 v -16.81654 c 0,-2.79307 3.28426,-6.03671 6.61048,-6.08285 1.30984,-0.0182 1.82419,0.007 2.46404,0.007 3.43292,0 6.07818,2.6432 6.07818,6.07612 v 18.35297 h 7.64863 v -18.35297 c 0,-7.53868 -6.18813,-13.72681 -13.72681,-13.72681 z" /></g></g></g></g><g
             id="g58209"
             transform="translate(-26.458334)"
             style="stroke-width:4"><path
               id="path58197"
               style="fill:#00aad4;fill-opacity:1;stroke:none;stroke-width:45.7988;stroke-linecap:round;stroke-linejoin:round;stroke-miterlimit:4;stroke-dasharray:none;stroke-dashoffset:0;stroke-opacity:1;paint-order:normal"
               d="m 345.88602,-152.31726 v 8.60119 h 8.60182 v 18.50495 c -2.90108,-1.8167 -6.25401,-2.78228 -9.67696,-2.78675 -10.09466,-7e-5 -18.27807,8.18332 -18.27816,18.27814 9e-5,10.094805 8.18348,18.278209 18.27816,18.278142 3.42295,-0.0045 6.77588,-0.970064 9.67696,-2.786778 v 2.785483 6.42e-4 h 8.60117 v -6.42e-4 h 8.60119 v -8.601167 h -8.60119 v -9.67568 -42.59753 z m -1.07514,32.9193 c 5.33517,6.2e-4 9.66356,4.3189 9.67696,9.65414 v 0.0483 c -0.013,5.33524 -4.34179,9.65342 -9.67696,9.65414 -5.34507,-4e-5 -9.67812,-4.33309 -9.67823,-9.67823 1.1e-4,-5.34515 4.33316,-9.67818 9.67823,-9.67821 z" /><g
               id="g58201"
               transform="matrix(1.6254688,0,0,1.6254688,-648.59911,-1085.9915)"
               style="fill:#00aad4;fill-opacity:1;stroke-width:3.2607"><path
                 style="opacity:1;fill:#00aad4;fill-opacity:1;stroke:none;stroke-width:106.49;stroke-linecap:round;stroke-linejoin:round;stroke-miterlimit:4;stroke-dasharray:none;stroke-dashoffset:0;stroke-opacity:1;paint-order:normal"
                 d="m 2415,2257.5195 v 20 h -20 -40 v 20 h 40 20 20 v -20 -20 z"
                 transform="matrix(0,-0.26458333,0.26458333,0,27.11462,1234.9479)"
                 id="path58199" /></g><path
               id="path58203"
               style="fill:#00aad4;fill-opacity:1;stroke:none;stroke-width:45.7988;stroke-linecap:round;stroke-linejoin:round;stroke-miterlimit:4;stroke-dasharray:none;stroke-dashoffset:0;stroke-opacity:1;paint-order:normal"
               d="m 404.78757,-64.907193 v -8.601197 h 9.66459 v -18.504954 c -2.90108,1.816703 -6.25401,2.782285 -9.67697,2.786755 -10.09466,6.8e-5 -18.27806,-8.183317 -18.27815,-18.278141 9e-5,-10.0948 8.18349,-18.27821 18.27815,-18.27814 3.42296,0.004 6.77589,0.97006 9.67697,2.78679 v -2.7855 -6.4e-4 h 8.60117 v 6.4e-4 h 8.60119 v 8.60117 h -8.60119 v 9.67568 42.597537 z m -0.013,-32.919305 c 5.33517,-6.19e-4 9.66357,-4.318902 9.67697,-9.654142 v -0.0483 c -0.0131,-5.33524 -4.3418,-9.65341 -9.67697,-9.65414 -5.34506,5e-5 -9.67813,4.33309 -9.67824,9.67824 1.1e-4,5.34514 4.33318,9.67817 9.67824,9.678203 z" /><g
               id="g58207"
               transform="matrix(1.6254688,0,0,-1.6254688,-586.81681,868.70245)"
               style="fill:#00aad4;fill-opacity:1;stroke-width:3.2607"><path
                 style="opacity:1;fill:#00aad4;fill-opacity:1;stroke:none;stroke-width:106.49;stroke-linecap:round;stroke-linejoin:round;stroke-miterlimit:4;stroke-dasharray:none;stroke-dashoffset:0;stroke-opacity:1;paint-order:normal"
                 d="m 2415,2257.5195 v 20 h -20 -40 v 20 h 40 20 20 v -20 -20 z"
                 transform="matrix(0,-0.26458333,0.26458333,0,27.11462,1234.9479)"
                 id="path58205" /></g></g></g></g><g
         id="g58243"
         transform="matrix(0.78414477,0,0,0.78414477,-82.877111,-122.96831)"><g
           id="g58223"
           transform="matrix(0.74298768,0,0,0.74298768,40.075686,-223.00387)"><text
             xml:space="preserve"
             style="font-style:normal;font-variant:normal;font-weight:normal;font-stretch:normal;font-size:8.09157px;line-height:1.25;font-family:Rockwell;-inkscape-font-specification:Rockwell;letter-spacing:-0.151717px;word-spacing:0px;fill:#00aad4;fill-opacity:1;stroke:none;stroke-width:0.0626672"
             x="126.08573"
             y="-813.94928"
             id="text58217"><tspan
               id="tspan58215"
               x="126.08573"
               y="-813.94928"
               style="font-style:normal;font-variant:normal;font-weight:normal;font-stretch:normal;font-size:8.09157px;font-family:Rockwell;-inkscape-font-specification:Rockwell;font-variant-ligatures:normal;font-variant-caps:normal;font-variant-numeric:normal;font-variant-east-asian:normal;fill:#00aad4;fill-opacity:1;stroke-width:0.0626672">gráficos</tspan></text><g
             id="g58221"
             transform="matrix(0.54411185,0,0,0.54411185,-358.59216,-796.2904)"><path
               id="path58219"
               style="fill:#892ca0;fill-opacity:1;stroke-width:7.93302;stroke-linecap:square;paint-order:stroke markers fill"
               d="m 914.11395,-66.801739 c 2.34929,0.02838 4.66608,0.7099 6.67504,1.993677 a 2.0851557,2.0851557 0 0 1 1.21336,-0.389124 2.0851557,2.0851557 0 0 1 2.08515,2.085144 2.0851557,2.0851557 0 0 1 -0.26562,1.015959 c 2.28085,2.820836 3.26001,6.513436 2.63395,10.131681 a 1.5316607,1.5316607 0 0 1 0.51625,1.145667 1.5316607,1.5316607 0 0 1 -1.53169,1.531689 1.5316607,1.5316607 0 0 1 -1.53118,-1.531689 1.5316607,1.5316607 0 0 1 1.34204,-1.519804 c 0.50412,-3.179236 -0.35967,-6.405407 -2.33991,-8.896615 a 2.0851557,2.0851557 0 0 1 -0.90899,0.208256 2.0851557,2.0851557 0 0 1 -2.08514,-2.085144 2.0851557,2.0851557 0 0 1 0.11937,-0.694531 c -2.66261,-1.670345 -5.91022,-2.174292 -8.96793,-1.372526 a 1.5316607,1.5316607 0 0 1 0.005,0.120923 1.5316607,1.5316607 0 0 1 -1.53169,1.531689 1.5316607,1.5316607 0 0 1 -1.53168,-1.531689 1.5316607,1.5316607 0 0 1 1.53168,-1.53169 1.5316607,1.5316607 0 0 1 0.89349,0.288871 c 0.7917,-0.22971 1.59643,-0.37987 2.40347,-0.451652 0.42509,-0.03781 0.85077,-0.05422 1.27538,-0.04909 z m 5.19709,6.087484 a 0.6964962,0.6964962 0 0 1 0.55398,0.993737 l -4.87413,10.17354 a 1.6143881,1.6143881 0 0 1 -2.59777,0.4439 l -3.2427,-3.243213 a 1.7630114,1.7630114 0 0 1 0.35347,-2.766756 l 9.38031,-5.509224 a 0.6964962,0.6964962 0 0 1 0.42684,-0.09198 z" /></g></g><g
           id="g58231"
           transform="matrix(0.74298768,0,0,0.74298768,37.192522,-223.00387)"><path
             id="path58225"
             style="fill:#892ca0;fill-opacity:1;stroke:none;stroke-width:0.716775;stroke-linecap:round;stroke-linejoin:round;stroke-dasharray:none;stroke-opacity:1;paint-order:normal"
             d="m 94.323316,-831.58376 a 0.45878265,0.45878265 0 0 0 -0.39818,0.22923 l -0.65163,1.12978 h -2.946854 a 0.45873677,0.45873677 0 0 0 -0.459617,0.45843 0.45873677,0.45873677 0 0 0 0.459617,0.45958 h 3.212037 a 0.45878265,0.45878265 0 0 0 0.396638,-0.23073 l 0.652799,-1.12828 h 1.19989 1.26015 1.20025 l 0.65281,1.12828 a 0.45878265,0.45878265 0 0 0 0.39664,0.23073 h 3.212104 a 0.45873677,0.45873677 0 0 0 0.45954,-0.45958 0.45873677,0.45873677 0 0 0 -0.45954,-0.45843 h -2.947297 l -0.651627,-1.12978 a 0.45878265,0.45878265 0 0 0 -0.39781,-0.22923 h -1.46507 -1.26015 z m 2.09478,2.42781 a 3.094859,3.094859 0 0 0 -3.094956,3.0946 3.094859,3.094859 0 0 0 3.094956,3.095 3.094859,3.094859 0 0 0 3.095017,-3.095 3.094859,3.094859 0 0 0 -3.095017,-3.0946 z m -0.0103,0.9824 c 0.14165,-7.3e-4 0.28227,0.0117 0.42054,0.0399 0.31614,0.0626 0.61805,0.19814 0.87972,0.40008 0.52362,0.4039 0.82847,1.03082 0.82253,1.69204 a 0.48827656,0.48827656 0 0 1 -0.4929,0.48381 0.48827656,0.48827656 0 0 1 -0.48345,-0.49328 c 0.007,-0.35621 -0.16049,-0.69247 -0.44253,-0.91004 -0.28205,-0.21759 -0.64819,-0.28947 -0.99189,-0.19589 a 0.48827656,0.48827656 0 0 1 -0.59973,-0.34363 0.48827656,0.48827656 0 0 1 0.34327,-0.59861 c 0.17948,-0.0488 0.36255,-0.0732 0.54444,-0.0743 z" /><text
             xml:space="preserve"
             style="font-style:normal;font-variant:normal;font-weight:normal;font-stretch:normal;font-size:8.09157px;line-height:1.25;font-family:Rockwell;-inkscape-font-specification:Rockwell;letter-spacing:-0.151717px;word-spacing:0px;fill:#00aad4;fill-opacity:1;stroke:none;stroke-width:0.0626672"
             x="79.147308"
             y="-814.00635"
             id="text58229"><tspan
               id="tspan58227"
               x="79.147308"
               y="-814.00635"
               style="font-style:normal;font-variant:normal;font-weight:normal;font-stretch:normal;font-size:8.09157px;font-family:Rockwell;-inkscape-font-specification:Rockwell;font-variant-ligatures:normal;font-variant-caps:normal;font-variant-numeric:normal;font-variant-east-asian:normal;fill:#00aad4;fill-opacity:1;stroke-width:0.0626672">fotografía</tspan></text></g><g
           id="g58241"
           transform="matrix(0.74298768,0,0,0.74298768,37.192522,-223.00387)"><text
             xml:space="preserve"
             style="font-style:normal;font-variant:normal;font-weight:normal;font-stretch:normal;font-size:8.09157px;line-height:1.25;font-family:Rockwell;-inkscape-font-specification:Rockwell;letter-spacing:-0.151717px;word-spacing:0px;fill:#00aad4;fill-opacity:1;stroke:none;stroke-width:0.0626672"
             x="172.19125"
             y="-814.25964"
             id="text58235"><tspan
               id="tspan58233"
               x="172.19125"
               y="-814.25964"
               style="font-style:normal;font-variant:normal;font-weight:normal;font-stretch:normal;font-size:8.09157px;font-family:Rockwell;-inkscape-font-specification:Rockwell;font-variant-ligatures:normal;font-variant-caps:normal;font-variant-numeric:normal;font-variant-east-asian:normal;fill:#00aad4;fill-opacity:1;stroke-width:0.0626672">diseñoweb</tspan></text><g
             id="g58239"
             transform="matrix(0.68625543,0,0,0.68625543,-723.85506,-944.26998)"><path
               id="path58237"
               style="fill:#892ca0;fill-opacity:1;stroke:none;stroke-width:3.02241;stroke-linecap:round;stroke-linejoin:miter;stroke-miterlimit:4;stroke-dasharray:none;stroke-dashoffset:56.6929;stroke-opacity:1;paint-order:stroke fill markers"
               d="m 1337.6659,162.55219 a 0.6257,0.6257 0 0 0 -0.5468,0.3793 l -6.1252,14.33608 a 0.6257,0.6257 0 0 0 0.3302,0.82217 0.6257,0.6257 0 0 0 0.8206,-0.33021 l 6.1247,-14.33556 a 0.6257,0.6257 0 0 0 -0.3297,-0.82217 0.6257,0.6257 0 0 0 -0.2738,-0.0496 z m -7.8053,2.09496 -3.3574,3.35794 -1.5265,1.526 1.5265,1.52601 3.3574,3.35793 1.5266,-1.52601 -3.358,-3.35793 3.3574,-3.35742 z m 8.8775,2.85357 -1.526,1.52601 3.3574,3.35742 -3.3579,3.35793 1.5265,1.52601 3.3575,-3.35742 1.5265,-1.52652 -1.5265,-1.52601 z" /></g></g></g><g
         id="g58251"
         transform="matrix(0.78414477,0,0,0.78414477,-82.57701,-122.96831)"><rect
           style="opacity:1;fill:#ff9955;fill-opacity:1;stroke-width:2.22896;stroke-linecap:round;stroke-linejoin:round;paint-order:stroke fill markers"
           id="rect58245"
           width="97.57103"
           height="1.2818217"
           x="95.773308"
           y="-847.38885" /><circle
           style="opacity:1;fill:#ff9955;fill-opacity:1;stroke-width:1.31227;stroke-linecap:round;stroke-linejoin:round;paint-order:stroke fill markers"
           id="circle58247"
           cx="94.975746"
           cy="-846.74792"
           r="1.8443047" /><circle
           style="opacity:1;fill:#ff9955;fill-opacity:1;stroke-width:1.31227;stroke-linecap:round;stroke-linejoin:round;paint-order:stroke fill markers"
           id="circle58249"
           cx="194.44635"
           cy="-846.74792"
           r="1.8443047" /></g></g></g></svg>
