<?xml version="1.0" encoding="UTF-8" standalone="no"?>
<!-- Created with Inkscape (http://www.inkscape.org/) -->

<svg
   width="5.9416718mm"
   height="5.9434924mm"
   viewBox="0 0 5.9416719 5.9434925"
   version="1.1"
   id="svg5"
   xml:space="preserve"
   xmlns="http://www.w3.org/2000/svg"
   xmlns:svg="http://www.w3.org/2000/svg"><defs
     id="defs2" /><g
     id="layer1"
     transform="translate(1234.4678,932.09886)"><path
       style="fill:#333333;stroke-width:0.0232386"
       d="m -1231.9385,-926.18845 c -0.4332,-0.0685 -0.864,-0.23624 -1.2221,-0.47584 -0.1011,-0.0677 -0.2947,-0.23387 -0.4301,-0.36928 -0.3659,-0.36588 -0.5758,-0.70392 -0.7306,-1.17671 -0.2848,-0.86925 -0.1504,-1.8154 0.3678,-2.59016 0.1523,-0.22758 0.5605,-0.63426 0.7929,-0.78978 0.6123,-0.40976 1.3759,-0.585 2.0819,-0.47777 0.6678,0.10142 1.1976,0.36925 1.6754,0.84705 0.3659,0.36589 0.5758,0.70392 0.7306,1.17671 0.2848,0.86925 0.1504,1.8154 -0.3678,2.59015 -0.1523,0.22759 -0.5605,0.63428 -0.7929,0.78979 -0.6149,0.41147 -1.3958,0.588 -2.1051,0.47584 z m 0.8249,-0.77989 c 0.439,-0.0736 1.0156,-0.38336 1.1295,-0.60669 0.069,-0.1352 0.054,-0.41373 -0.033,-0.60596 -0.083,-0.18488 -0.2823,-0.38739 -0.4759,-0.48457 l -0.1559,-0.0783 h -0.8482 -0.8483 l -0.1559,0.0783 c -0.2958,0.14846 -0.5067,0.43496 -0.5492,0.74622 -0.036,0.25972 0.014,0.37924 0.2198,0.53494 0.4938,0.37285 1.0996,0.51965 1.717,0.41606 z m -0.1385,-2.31095 c 0.286,-0.074 0.5135,-0.26559 0.6472,-0.54512 0.067,-0.1408 0.072,-0.16845 0.072,-0.40717 0,-0.24459 0,-0.26337 -0.079,-0.41753 -0.1439,-0.29238 -0.4062,-0.48944 -0.731,-0.5493 -0.41,-0.0755 -0.8443,0.1541 -1.0389,0.5493 -0.076,0.15416 -0.08,0.17294 -0.08,0.41753 0,0.23872 0,0.26637 0.072,0.40717 0.2126,0.44428 0.6733,0.66514 1.1371,0.54512 z"
       id="path33983" /></g></svg>
