<?xml version="1.0" encoding="UTF-8" standalone="no"?>
<!-- Created with Inkscape (http://www.inkscape.org/) -->

<svg
   width="6.6027179mm"
   height="5.7473955mm"
   viewBox="0 0 6.602718 5.7473956"
   version="1.1"
   id="svg5"
   xml:space="preserve"
   xmlns="http://www.w3.org/2000/svg"
   xmlns:svg="http://www.w3.org/2000/svg"><defs
     id="defs2" /><g
     id="layer1"
     transform="translate(1217.5576,932.00075)"><path
       style="fill:#333333;stroke-width:0.0258094"
       d="m -1214.9694,-926.26282 -0.7505,-0.0159 -0.091,-0.0695 c -0.1783,-0.1361 -0.1883,-0.185 -0.1877,-0.92415 0,-0.73391 0.024,-0.90021 0.1666,-1.19978 0.044,-0.0924 0.1458,-0.23878 0.2259,-0.32537 0.38,-0.41041 0.8154,-0.56477 1.4992,-0.53144 0.5273,0.0258 0.7922,0.1341 1.1146,0.45615 0.2148,0.21446 0.3556,0.45182 0.423,0.71299 0.062,0.23991 0.07,1.53888 0.011,1.64883 -0.061,0.11284 -0.1491,0.18468 -0.2663,0.21771 -0.1302,0.0367 -1.1534,0.0512 -2.1442,0.0303 z m -2.4137,-0.47443 c -0.1771,-0.11833 -0.1802,-0.13757 -0.1722,-1.08993 0.01,-0.81261 0.01,-0.85731 0.063,-0.97346 0.084,-0.18118 0.2673,-0.36333 0.448,-0.44443 0.3349,-0.15026 0.9503,-0.10692 1.1661,0.0822 0.041,0.0361 0.037,0.048 -0.071,0.17054 -0.3444,0.39365 -0.4631,0.88382 -0.4463,1.84272 l 0.01,0.47106 -0.4543,-3e-5 c -0.4294,-3e-5 -0.4592,-0.003 -0.5421,-0.0586 z m 5.2602,-0.606 c -0.01,-0.46598 -0.026,-0.72244 -0.055,-0.85816 -0.053,-0.2457 -0.2352,-0.61928 -0.3863,-0.7904 -0.1085,-0.12306 -0.1136,-0.13496 -0.073,-0.1711 0.2158,-0.18906 0.8312,-0.23242 1.1661,-0.0822 0.1807,0.0811 0.3643,0.26325 0.448,0.44443 0.054,0.11613 0.056,0.16103 0.063,0.97346 0.01,0.79284 0.01,0.85796 -0.041,0.94204 -0.026,0.0497 -0.087,0.11647 -0.1337,0.1484 -0.08,0.0547 -0.111,0.0581 -0.5296,0.0581 h -0.4445 z m -4.6449,-2.46785 c -0.357,-0.13319 -0.5408,-0.52044 -0.4271,-0.89992 0.04,-0.13603 0.225,-0.33702 0.3761,-0.41015 0.2536,-0.12275 0.5777,-0.0617 0.7877,0.14825 0.1296,0.12953 0.1821,0.25285 0.1945,0.45646 0.017,0.28991 -0.099,0.50827 -0.35,0.65537 -0.1412,0.0827 -0.4273,0.10737 -0.5812,0.05 z m 2.1459,-0.0243 c -0.3281,-0.11183 -0.6151,-0.40892 -0.7099,-0.73463 -0.067,-0.23015 -0.041,-0.56854 0.059,-0.78335 0.1953,-0.41691 0.5566,-0.64737 1.015,-0.64737 0.4584,0 0.8197,0.23046 1.0149,0.64737 0.1006,0.21481 0.1262,0.5532 0.059,0.78335 -0.1731,0.59546 -0.8432,0.93763 -1.4387,0.73463 z m 2.3967,0.0243 c -0.3571,-0.13319 -0.5409,-0.52044 -0.4272,-0.89992 0.041,-0.13603 0.225,-0.33702 0.3761,-0.41015 0.2536,-0.12275 0.5777,-0.0617 0.7877,0.14825 0.1296,0.12953 0.1821,0.25285 0.1945,0.45646 0.018,0.28991 -0.099,0.50827 -0.35,0.65537 -0.1412,0.0827 -0.4273,0.10737 -0.5811,0.05 z"
       id="path34003" /></g></svg>
