<?xml version="1.0" encoding="UTF-8" standalone="no"?>
<!-- Created with Inkscape (http://www.inkscape.org/) -->

<svg
   width="6.3874898mm"
   height="5.3410692mm"
   viewBox="0 0 6.3874899 5.3410693"
   version="1.1"
   id="svg5"
   xml:space="preserve"
   xmlns="http://www.w3.org/2000/svg"
   xmlns:svg="http://www.w3.org/2000/svg"><defs
     id="defs2" /><g
     id="layer1"
     transform="translate(1244.5543,931.79758)"><path
       style="fill:#333333;stroke-width:0.025088"
       d="m -1240.8975,-926.47332 c -0.109,-0.0335 -0.165,-0.10568 -0.1789,-0.2305 -0.015,-0.13461 0.053,-0.23211 0.1884,-0.26971 0.051,-0.0141 0.2708,-0.0258 0.4881,-0.0259 l 0.3951,-1.5e-4 v -0.86801 c 0,-0.96882 -7e-4,-0.96418 0.1747,-1.12268 0.057,-0.0517 0.1449,-0.0981 0.2232,-0.11822 l 0.129,-0.0331 v -0.18014 c 0,-0.68726 -0.3049,-1.27246 -0.8544,-1.64 -0.1435,-0.096 -0.2991,-0.17493 -0.4314,-0.21881 -0.1874,-0.0621 -0.2426,-0.0688 -0.5833,-0.0701 -0.3262,-0.002 -0.4014,0.006 -0.5645,0.057 -0.5938,0.18461 -1.0639,0.66113 -1.254,1.27117 -0.038,0.12017 -0.059,0.27087 -0.069,0.47732 l -0.014,0.30171 0.1314,0.0337 c 0.1564,0.0401 0.292,0.15105 0.3555,0.29097 0.042,0.0913 0.046,0.18505 0.046,1.02335 5e-4,0.77704 0,0.93747 -0.038,1.01572 -0.087,0.20738 -0.2508,0.30687 -0.5064,0.30687 -0.574,0 -1.085,-0.39468 -1.2498,-0.96539 -0.064,-0.22059 -0.058,-0.55941 0.012,-0.76569 0.1042,-0.3043 0.2896,-0.54248 0.5505,-0.70694 l 0.1719,-0.10841 0.013,-0.37632 c 0.016,-0.46234 0.072,-0.70394 0.2442,-1.05759 0.4077,-0.83772 1.2208,-1.34441 2.1575,-1.34441 1.1476,0 2.101,0.77666 2.3481,1.91278 0.019,0.0897 0.043,0.32112 0.052,0.5143 l 0.016,0.35124 0.1618,0.10035 c 0.6123,0.37975 0.8035,1.22954 0.4125,1.83323 -0.1209,0.18676 -0.3404,0.38857 -0.5161,0.4745 -0.2746,0.13435 -0.3473,0.14387 -1.1695,0.15305 -0.4381,0.005 -0.7983,-0.002 -0.8425,-0.0152 z"
       id="path33999" /></g></svg>
