<?xml version="1.0" encoding="UTF-8" standalone="no"?>
<!-- Created with Inkscape (http://www.inkscape.org/) -->

<svg
   width="5.2098708mm"
   height="5.1761532mm"
   viewBox="0 0 5.2098709 5.1761533"
   version="1.1"
   id="svg5"
   xml:space="preserve"
   xmlns="http://www.w3.org/2000/svg"
   xmlns:svg="http://www.w3.org/2000/svg"><defs
     id="defs2" /><g
     id="layer1"
     transform="translate(1253.3582,956.56221)"><path
       style="fill:#0070d4;fill-opacity:1;stroke-width:0.0101873"
       d="m -1251.3109,-951.41213 c -0.6199,-0.14266 -1.1459,-0.48031 -1.5185,-0.97444 -0.4615,-0.61194 -0.632,-1.39212 -0.4676,-2.14021 0.2174,-0.99002 1.0222,-1.78157 2.0166,-1.98362 0.2576,-0.0524 0.5933,-0.0666 0.8408,-0.0355 0.6629,0.0829 1.2644,0.40871 1.6824,0.91094 0.3273,0.39315 0.5211,0.83506 0.5903,1.34556 0.021,0.15587 0.024,0.50282 0.01,0.6418 -0.057,0.42692 -0.1948,0.79381 -0.4332,1.15115 -0.3157,0.47333 -0.8172,0.84748 -1.3718,1.02349 -0.092,0.0293 -0.3294,0.0865 -0.3591,0.0869 -0.017,9e-5 -0.018,-0.0498 -0.018,-0.90655 v -0.90662 h 0.3032 0.3032 l 0.054,-0.35909 c 0.03,-0.1975 0.056,-0.36713 0.059,-0.37693 0.01,-0.0167 -0.017,-0.0178 -0.3572,-0.0178 h -0.3624 v -0.278 c 0,-0.30544 0.01,-0.35899 0.06,-0.4448 0.033,-0.0542 0.1028,-0.11013 0.1716,-0.1376 0.041,-0.0166 0.085,-0.0205 0.2831,-0.0252 l 0.2343,-0.007 v -0.31761 c 0,-0.29596 0,-0.31798 -0.015,-0.32304 -0.079,-0.024 -0.2949,-0.0408 -0.5223,-0.0408 -0.2387,-6e-5 -0.2539,6.5e-4 -0.3501,0.0272 -0.269,0.0728 -0.4545,0.22024 -0.567,0.45055 -0.096,0.19579 -0.1114,0.30129 -0.1116,0.75131 l -2e-4,0.34382 h -0.331 -0.3311 v 0.37693 0.37691 h 0.3311 0.331 v 0.90668 0.90668 l -0.023,-4.8e-4 c -0.013,-3.9e-4 -0.071,-0.0119 -0.13,-0.0252 z"
       id="path33919" /></g></svg>
