<?xml version="1.0" encoding="UTF-8" standalone="no"?>
<!-- Created with Inkscape (http://www.inkscape.org/) -->

<svg
   width="7.8081861mm"
   height="7.8225451mm"
   viewBox="0 0 7.8081861 7.8225452"
   version="1.1"
   id="svg5"
   xml:space="preserve"
   xmlns="http://www.w3.org/2000/svg"
   xmlns:svg="http://www.w3.org/2000/svg"><defs
     id="defs2" /><g
     id="layer1"
     transform="translate(1255.2684,943.69601)"><path
       style="fill:#353535;fill-opacity:1;stroke-width:0.0306117"
       d="m -1252.5735,-935.96225 c -0.5436,-0.18958 -0.9873,-0.4626 -1.4124,-0.86904 -0.6235,-0.59601 -1.0248,-1.31087 -1.2119,-2.15856 -0.088,-0.40083 -0.095,-1.15491 -0.014,-1.53661 0.1737,-0.81346 0.5143,-1.44443 1.0912,-2.02125 0.577,-0.57698 1.2093,-0.9183 2.0212,-1.09093 0.3601,-0.0765 1.1093,-0.0765 1.4694,0 0.8119,0.17263 1.4442,0.51395 2.0212,1.09093 0.5769,0.57682 0.9175,1.20779 1.0912,2.02125 0.082,0.3817 0.075,1.13578 -0.014,1.53661 -0.1871,0.84769 -0.5884,1.56255 -1.2119,2.15856 -0.3151,0.30127 -0.5804,0.48907 -0.9532,0.67486 -0.1912,0.0952 -0.6796,0.28296 -0.7362,0.28296 -0.01,0 -0.014,-0.43048 -0.019,-0.95662 -0.01,-1.04185 -0.01,-1.01316 -0.2012,-1.27005 -0.085,-0.11157 -0.1008,-0.099 0.2204,-0.1735 0.8519,-0.19746 1.3954,-0.85448 1.3942,-1.68528 -5e-4,-0.35596 -0.085,-0.63168 -0.2955,-0.96017 -0.1041,-0.16274 -0.1055,-0.16937 -0.069,-0.31963 0.04,-0.16709 0.024,-0.54349 -0.032,-0.73414 -0.031,-0.10419 -0.043,-0.11479 -0.1401,-0.11479 -0.1495,0 -0.4044,0.0956 -0.6821,0.25576 l -0.2372,0.13681 -0.1974,-0.0495 c -0.2728,-0.0685 -1.0703,-0.0687 -1.3425,-2.9e-4 l -0.1962,0.0492 -0.263,-0.15101 c -0.2776,-0.15938 -0.5016,-0.24097 -0.6614,-0.24097 -0.084,0 -0.1011,0.0143 -0.1337,0.11479 -0.058,0.17993 -0.078,0.56183 -0.037,0.73244 0.036,0.14861 0.034,0.15498 -0.07,0.30997 -0.3721,0.55293 -0.3856,1.34813 -0.032,1.90774 0.2166,0.3432 0.6671,0.64133 1.1319,0.74907 0.1169,0.0271 0.2302,0.0544 0.2516,0.0608 0.027,0.007 0,0.0631 -0.068,0.17292 -0.059,0.0888 -0.1162,0.20663 -0.1272,0.26195 -0.025,0.12313 -0.087,0.15962 -0.2743,0.15962 -0.1862,0 -0.3175,-0.0817 -0.4414,-0.27476 -0.1758,-0.27404 -0.434,-0.46108 -0.6968,-0.50486 l -0.1301,-0.0217 3e-4,0.11748 c 6e-4,0.20218 0.037,0.35155 0.088,0.36782 0.1387,0.0435 0.2114,0.10543 0.3606,0.30687 0.2661,0.35935 0.4711,0.47409 0.8441,0.47251 l 0.2066,-8.7e-4 v 0.64117 c 0,0.35264 -0.01,0.64042 -0.023,0.63949 -0.013,-9.3e-4 -0.1331,-0.0401 -0.2678,-0.0871 z"
       id="path33969" /></g></svg>
