<?xml version="1.0" encoding="UTF-8" standalone="no"?>
<!-- Created with Inkscape (http://www.inkscape.org/) -->

<svg
   width="5.3348131mm"
   height="5.3290238mm"
   viewBox="0 0 5.3348132 5.329024"
   version="1.1"
   id="svg5"
   xml:space="preserve"
   xmlns="http://www.w3.org/2000/svg"
   xmlns:svg="http://www.w3.org/2000/svg"><defs
     id="defs2" /><g
     id="layer1"
     transform="translate(1254.2785,931.79162)"><path
       style="fill:#333333;fill-opacity:1;stroke-width:0.0208511"
       d="m -1253.381,-926.48398 c -0.2974,-0.0493 -0.6337,-0.30326 -0.7695,-0.58101 -0.1225,-0.25058 -0.1278,-0.31368 -0.128,-1.52212 -1e-4,-0.65553 0.01,-1.14906 0.021,-1.23021 0.044,-0.273 0.2069,-0.53917 0.4323,-0.70449 0.3415,-0.25044 1.6459,-1.11874 1.7626,-1.17331 0.2749,-0.12862 0.6292,-0.12867 0.9041,-1.2e-4 0.1233,0.0576 1.5734,1.02579 1.7895,1.19472 0.1797,0.14043 0.296,0.31252 0.3774,0.55809 0.035,0.10428 0.039,0.21979 0.045,1.27312 0.01,1.28516 0,1.34539 -0.1234,1.60309 -0.087,0.1783 -0.2994,0.39012 -0.4776,0.47766 -0.2602,0.1278 -0.2593,0.12773 -2.0735,0.12546 -0.906,-10e-4 -1.6982,-0.0101 -1.7605,-0.0209 z"
       id="path33975" /></g></svg>
