<?xml version="1.0" encoding="UTF-8" standalone="no"?>
<!-- Created with Inkscape (http://www.inkscape.org/) -->

<svg
   width="5.0043001mm"
   height="5.0043402mm"
   viewBox="0 0 5.0043002 5.0043403"
   version="1.1"
   id="svg5"
   xml:space="preserve"
   xmlns:xlink="http://www.w3.org/1999/xlink"
   xmlns="http://www.w3.org/2000/svg"
   xmlns:svg="http://www.w3.org/2000/svg"><defs
     id="defs2"><linearGradient
       id="linearGradient36099"><stop
         style="stop-color:#d40089;stop-opacity:1;"
         offset="0"
         id="stop36095" /><stop
         style="stop-color:#ff7200;stop-opacity:1;"
         offset="1"
         id="stop36097" /></linearGradient><linearGradient
       xlink:href="#linearGradient36099"
       id="linearGradient33935"
       gradientUnits="userSpaceOnUse"
       gradientTransform="translate(-1191.5327,-119.83605)"
       x1="-61.327778"
       y1="-850.62598"
       x2="-56.249859"
       y2="-855.20648" /></defs><g
     id="layer1"
     transform="translate(1253.2558,975.20003)"><path
       id="path33929"
       style="fill:url(#linearGradient33935);fill-opacity:1;stroke:none;stroke-width:0.496888;stroke-linecap:round;stroke-linejoin:round;stroke-dasharray:none;stroke-opacity:1;paint-order:stroke fill markers"
       d="m -1251.7613,-975.20003 c -0.8278,0 -1.4945,0.6662 -1.4945,1.49396 v 2.0159 c 0,0.82776 0.6667,1.49448 1.4945,1.49448 h 2.0159 c 0.8277,0 1.4939,-0.66672 1.4939,-1.49448 v -2.0159 c 0,-0.82776 -0.6662,-1.49396 -1.4939,-1.49396 z m 2.4871,0.56895 c 0.2027,0 0.3659,0.16326 0.3659,0.36587 0,0.20261 -0.1632,0.36587 -0.3659,0.36587 -0.2026,0 -0.3653,-0.16326 -0.3653,-0.36587 0,-0.20261 0.1627,-0.36587 0.3653,-0.36587 z m -1.4789,0.62684 c 0.7204,0 1.3063,0.58643 1.3063,1.3069 0,0.72047 -0.5859,1.30638 -1.3063,1.30638 -0.7205,0 -1.3069,-0.58591 -1.3069,-1.30638 0,-0.72047 0.5864,-1.3069 1.3069,-1.3069 z m -0.024,0.40669 c -0.4903,0.0122 -0.8749,0.40661 -0.8749,0.90021 0,0.50143 0.3972,0.89813 0.8987,0.89813 0.5014,0 0.8981,-0.3967 0.8981,-0.89813 0,-0.50143 -0.3967,-0.90021 -0.8981,-0.90021 -0.01,0 -0.016,-1.9e-4 -0.024,0 z" /></g></svg>
