<?xml version="1.0" encoding="UTF-8" standalone="no"?>
<!-- Created with Inkscape (http://www.inkscape.org/) -->

<svg
   width="7.8325453mm"
   height="7.8277369mm"
   viewBox="0 0 7.8325454 7.827737"
   version="1.1"
   id="svg5"
   xml:space="preserve"
   xmlns="http://www.w3.org/2000/svg"
   xmlns:svg="http://www.w3.org/2000/svg"><defs
     id="defs2" /><g
     id="layer1"
     transform="translate(1242.4885,943.69863)"><path
       style="fill:#353535;fill-opacity:1;stroke-width:0.0306117"
       d="m -1239.1865,-935.91694 c -0.16,-0.0244 -0.4308,-0.0912 -0.6019,-0.14829 -0.6249,-0.2085 -1.063,-0.48113 -1.5449,-0.96152 -0.4692,-0.46772 -0.755,-0.92716 -0.9601,-1.54355 -0.3785,-1.13738 -0.2006,-2.39616 0.4832,-3.41845 0.1973,-0.29498 0.7369,-0.83452 1.0318,-1.03182 1.3516,-0.90408 3.0565,-0.90408 4.4081,0 0.295,0.1973 0.8345,0.73684 1.0319,1.03182 0.4359,0.65181 0.6824,1.44774 0.6824,2.20404 0,0.5472 -0.1627,1.24655 -0.4,1.7195 -0.2824,0.5627 -0.8257,1.18954 -1.3143,1.51636 -0.8374,0.56016 -1.83,0.78288 -2.8162,0.63191 z m -0.5278,-3.29381 0.01,-1.43109 h -0.4748 -0.4748 v 1.43955 1.43955 l 0.4669,-0.008 0.4668,-0.008 z m 1.4769,0.59693 c 10e-5,-0.52216 0.013,-0.89609 0.034,-0.97048 0.091,-0.32899 0.5221,-0.48752 0.7779,-0.2863 0.1699,0.13364 0.1817,0.20432 0.1983,1.18791 l 0.015,0.90304 0.4669,0.008 0.4668,0.008 v -0.97394 c 0,-0.76559 -0.01,-1.01153 -0.046,-1.14967 -0.1418,-0.54449 -0.4949,-0.82189 -1.0468,-0.82253 -0.3136,-3.7e-4 -0.5407,0.093 -0.7357,0.30234 l -0.1309,0.14055 v -0.18792 -0.18793 h -0.4745 -0.4744 v 1.41835 c 0,0.78009 0.01,1.42753 0.02,1.43875 0.011,0.0112 0.2247,0.0205 0.4744,0.0205 h 0.4541 l 2e-4,-0.84948 z m -1.6921,-2.48609 c 0.2808,-0.12748 0.3683,-0.50241 0.1718,-0.73598 -0.1111,-0.13198 -0.2441,-0.19223 -0.4245,-0.19223 -0.3157,0 -0.5077,0.16926 -0.5284,0.46592 -0.015,0.21292 0.067,0.35215 0.2681,0.45353 0.1663,0.084 0.3406,0.087 0.513,0.008 z"
       id="path33967" /></g></svg>
