<?xml version="1.0" encoding="UTF-8" standalone="no"?>
<!-- Created with Inkscape (http://www.inkscape.org/) -->

<svg
   width="6.3393002mm"
   height="6.3234191mm"
   viewBox="0 0 6.3393002 6.3234192"
   version="1.1"
   id="svg5"
   xml:space="preserve"
   xmlns="http://www.w3.org/2000/svg"
   xmlns:svg="http://www.w3.org/2000/svg"><defs
     id="defs2" /><g
     id="layer1"
     transform="translate(1226.7111,932.28881)"><path
       style="fill:#333333;stroke-width:0.0247197"
       d="m -1225.638,-925.99014 c -0.3553,-0.0592 -0.7554,-0.3602 -0.9164,-0.68941 -0.1324,-0.27097 -0.1514,-0.42338 -0.1518,-1.21745 l -5e-4,-0.71069 h 1.4462 1.446 v 0.16191 c 0,0.0964 0.015,0.19125 0.038,0.23441 0.04,0.0781 0.1508,0.14751 0.2345,0.14751 0.084,0 0.1941,-0.0694 0.2345,-0.14751 0.022,-0.0431 0.038,-0.13805 0.038,-0.23441 v -0.16191 h 1.4482 1.4482 l -0.01,0.78485 c -0.01,0.77005 -0.01,0.78816 -0.072,0.96041 -0.124,0.3422 -0.3569,0.609 -0.6583,0.7539 -0.302,0.14518 -0.3028,0.14523 -2.441,0.14253 -1.0741,-10e-4 -2.0114,-0.0122 -2.083,-0.0241 z m -1.0633,-3.66196 c 0.01,-0.48839 0.015,-0.5369 0.073,-0.6904 0.2096,-0.55304 0.63,-0.84912 1.2532,-0.88271 l 0.281,-0.0152 0.044,-0.14096 c 0.1186,-0.384 0.4209,-0.6881 0.8258,-0.83059 0.1495,-0.0526 0.2322,-0.0635 0.5587,-0.0734 0.4895,-0.0148 0.6916,0.0153 0.9595,0.1429 0.3241,0.15439 0.5838,0.45843 0.6849,0.80185 l 0.029,0.10019 0.2692,0.0137 c 0.5405,0.0276 0.9292,0.2523 1.1698,0.67628 0.1327,0.23395 0.1548,0.35316 0.1684,0.91058 l 0.013,0.51294 h -3.1696 -3.1697 z m 4.1439,-1.65007 c -0.042,-0.12073 -0.2336,-0.31281 -0.3868,-0.38807 -0.1391,-0.0682 -0.1475,-0.0692 -0.5984,-0.0692 -0.4507,0 -0.4593,7.5e-4 -0.5982,0.0692 -0.1532,0.0753 -0.3448,0.26734 -0.3868,0.38807 l -0.026,0.0742 h 1.011 1.0109 z"
       id="path33991" /></g></svg>
