<?xml version="1.0" encoding="UTF-8" standalone="no"?>
<!-- Created with Inkscape (http://www.inkscape.org/) -->

<svg
   width="5.2105374mm"
   height="5.212451mm"
   viewBox="0 0 5.2105375 5.2124511"
   version="1.1"
   id="svg5"
   xml:space="preserve"
   xmlns="http://www.w3.org/2000/svg"
   xmlns:svg="http://www.w3.org/2000/svg"><defs
     id="defs2" /><g
     id="layer1"
     transform="translate(1253.3589,965.97655)"><path
       style="fill:#00aad4;fill-opacity:1;stroke-width:0.0101873"
       d="m -1250.9873,-960.77425 c -0.8019,-0.0713 -1.5389,-0.52225 -1.9722,-1.20696 -0.073,-0.11572 -0.1966,-0.36674 -0.2446,-0.49771 -0.1796,-0.4896 -0.2037,-1.04573 -0.068,-1.56504 0.081,-0.30782 0.242,-0.63822 0.44,-0.89994 0.1828,-0.24164 0.431,-0.46966 0.6885,-0.63266 0.1157,-0.0733 0.3668,-0.19662 0.4978,-0.24466 0.328,-0.12037 0.7149,-0.17462 1.0625,-0.14919 0.3713,0.0272 0.6512,0.10223 0.9755,0.26138 0.3109,0.15262 0.5524,0.33417 0.7866,0.59106 0.7282,0.79913 0.8813,1.98186 0.3811,2.94413 -0.1491,0.28669 -0.3201,0.50921 -0.5615,0.73059 -0.5326,0.48836 -1.2601,0.73345 -1.9858,0.66901 z m 1.0249,-1.30871 c 0.035,-0.0223 0.071,-0.0755 0.094,-0.14185 0.034,-0.0952 0.1804,-0.94096 0.2645,-1.52299 0.076,-0.52678 0.077,-0.5544 0.017,-0.61988 -0.033,-0.0361 -0.037,-0.0371 -0.1036,-0.0369 -0.087,4.7e-4 -0.1768,0.0298 -0.5483,0.17851 -0.4278,0.17123 -1.8463,0.77734 -2.0171,0.86184 -0.1564,0.0775 -0.1562,0.16822 5e-4,0.22689 0.1171,0.0439 0.3539,0.11316 0.4582,0.13418 0.1183,0.0239 0.1804,0.0191 0.274,-0.021 0.024,-0.009 0.284,-0.17874 0.5775,-0.37424 0.6631,-0.44169 0.633,-0.42285 0.668,-0.41883 0.024,0.003 0.029,0.008 0.032,0.0355 0,0.029 -0.01,0.0442 -0.1222,0.15718 -0.069,0.0686 -0.2537,0.24511 -0.4106,0.39195 -0.1569,0.14691 -0.3004,0.28594 -0.3189,0.30907 -0.068,0.0849 -0.065,0.13859 0.012,0.21188 0.045,0.0429 0.7353,0.51485 0.8648,0.59095 0.1036,0.0609 0.2012,0.0752 0.2601,0.0381 z"
       id="path33921" /></g></svg>
