<?xml version="1.0" encoding="UTF-8" standalone="no"?>
<!-- Created with Inkscape (http://www.inkscape.org/) -->

<svg
   width="5.3906183mm"
   height="5.3914242mm"
   viewBox="0 0 5.3906184 5.3914243"
   version="1.1"
   id="svg5"
   xml:space="preserve"
   xmlns="http://www.w3.org/2000/svg"
   xmlns:svg="http://www.w3.org/2000/svg"><defs
     id="defs2" /><g
     id="layer1"
     transform="translate(1253.4488,984.81092)"><path
       style="fill:#29bf4e;fill-opacity:1;stroke-width:0.0210739"
       d="m -1251.1546,-979.45036 c -0.3361,-0.0532 -0.728,-0.19573 -1.013,-0.36851 l -0.075,-0.0456 -0.5009,0.1617 c -0.2754,0.0889 -0.5048,0.15772 -0.5096,0.15287 0,-0.005 0.064,-0.2266 0.1534,-0.4928 l 0.1622,-0.48401 -0.098,-0.15708 c -0.5643,-0.90545 -0.5498,-2.01713 0.038,-2.92232 0.1574,-0.24235 0.5101,-0.59506 0.7525,-0.75251 0.5707,-0.37077 1.2317,-0.52047 1.8701,-0.42353 0.602,0.0914 1.0908,0.33819 1.52,0.76745 0.9174,0.9174 1.0569,2.29258 0.3439,3.39011 -0.1574,0.24236 -0.5101,0.59507 -0.7525,0.75251 -0.5729,0.37216 -1.2499,0.52316 -1.8912,0.42178 z m 1.4144,-1.16884 c 0.1582,-0.0294 0.3624,-0.13758 0.4603,-0.24377 0.095,-0.10278 0.1344,-0.21858 0.1364,-0.39894 v -0.12645 l -0.3477,-0.17475 c -0.2478,-0.12457 -0.3657,-0.17299 -0.4105,-0.16859 -0.05,0.005 -0.09,0.0403 -0.1971,0.17475 -0.1639,0.20561 -0.208,0.23338 -0.3155,0.19859 -0.2041,-0.0661 -0.4589,-0.22745 -0.668,-0.42309 -0.1895,-0.17721 -0.432,-0.50558 -0.432,-0.58493 0,-0.0117 0.057,-0.0894 0.1268,-0.17264 0.07,-0.0833 0.1321,-0.17253 0.1386,-0.19839 0.017,-0.0682 -0.2745,-0.77499 -0.3367,-0.81596 -0.05,-0.0328 -0.308,-0.017 -0.3879,0.0239 -0.097,0.0495 -0.2006,0.17638 -0.2735,0.33464 -0.074,0.16002 -0.09,0.44446 -0.037,0.62867 0.122,0.41971 0.6388,1.08851 1.1171,1.44577 0.3289,0.24559 0.9434,0.49575 1.2774,0.51995 0.019,0.002 0.085,-0.007 0.1475,-0.0187 z"
       id="path33927" /></g></svg>
